<svg enable-background="new 0 0 143.3 99.2" height="262.94605" viewBox="0 0 143.3 99.2" width="380.306151" xmlns="http://www.w3.org/2000/svg"><g fill="#143987"><path d="m18 69.2 6.3 19.5h.4l8-20.2c1-2.6 1.8-3.9 3.4-4.1v-1.1c-.6 0-1.8.2-3.6.2s-3-.2-3.6-.2v.9c2.8.2 3.4.6 3.4 1.3-.1 1.1-.3 2.1-.7 3.1l-5.7 15.1h-.1l-4.5-15.6c-.3-.9-.5-1.7-.6-2.6 0-.8.9-1.2 2.9-1.2v-.9c-.8 0-2.4.2-4.8.2s-4.1-.2-4.8-.2v.9c1.3 0 2.1.2 2.3.6.5 1 .9 2.1 1.1 3.3 0 .3-.1.6-.2.9l-4.8 14.3h-.1l-5.7-17.1c-.1-.4-.2-.8-.3-1.2 0-.7 1.3-.9 2.8-.9v-.9c-1 0-2.5.2-4.6.2-2.4 0-3.9-.4-4.6-.4v1.2c1.8.1 2.1.3 2.7 1.9l8.4 22.5h.4z"/><path d="m42.7 88.1v-.9h-2.7v-10.5c0-2.6.1-3.5.1-4s0-.6-.2-.6c-1.8.4-3.6.6-5.4.7v1l1.3.1c.5 0 1.3.2 1.3.4 0 1.3.1 2.6.1 4.1v5.5c0 1.2-.1 2.3-.2 3.4h-2.6v.9zm-6-21.7c-.1.9.6 1.8 1.5 1.9h.4c1 0 1.8-.9 1.8-1.9.1-.9-.5-1.8-1.5-1.9-.1 0-.2 0-.3 0-1.1.1-1.9.9-1.9 1.9z"/><path d="m62.1 88.1v-.9h-2.4v-9.8c0-3.8-2.4-5.7-5.3-5.7-2.7 0-4.1 1.5-5.3 3.6h-.1c0-1 0-3-.2-3-.4 0-3.4.4-5.1.4v1c1.4 0 2.4 0 2.5.9.2 1 .3 2 .3 3v7.2c0 1-.2 1.8-.2 2.2 0 .2-.2.4-.4.4h-2v.8c1.5 0 2.9-.1 4.3-.1h3.5v-.7h-2.5v-9.7c-.2-2.5 1.7-4.7 4.3-4.9 1.8 0 3.1.8 3.1 2.7v10.8c0 .8-.4 1.2-1.7 1.2h-1v.7z"/><path d="m80.9 88.1v-.9h-2.4v-9.8c0-3.8-2.4-5.7-5.3-5.7-2.7 0-4.1 1.5-5.3 3.6h-.1c0-1 0-3-.2-3-.4 0-3.4.4-5.1.4v1c1.4 0 2.4 0 2.5.9.2 1 .3 2 .3 3v7.2c0 1-.2 1.8-.2 2.2 0 .2-.2.4-.4.4h-2v.8c1.5 0 2.9-.1 4.3-.1h3.5v-.7h-2.5v-9.7c-.2-2.5 1.7-4.7 4.3-4.9 1.8 0 3.1.8 3.1 2.7v10.8c0 .8-.4 1.2-1.7 1.2h-1v.7z"/><path d="m89.8 88.1v-.9h-2.8v-10.5c0-2.6.1-3.5.1-4s0-.6-.2-.6c-1.8.4-3.6.6-5.4.7v1l1.3.1c.5 0 1.3.2 1.3.4 0 1.3.1 2.6.1 4.1v5.5c0 1.2-.1 2.3-.2 3.4h-2.6v.9zm-6-21.7c-.1.9.6 1.8 1.5 1.9h.3c1 0 1.8-.9 1.8-1.9.1-.9-.5-1.8-1.5-1.9-.1 0-.2 0-.3 0-1 0-1.8.9-1.8 1.9z"/><path d="m100 98.2-2.9-.4c-.8-.1-1.3-.7-1.3-1.5l-.2-9.6c1.3 1.3 3 2 4.8 2 4.8 0 7.9-3.7 7.9-8.6 0-4.3-2.6-8.4-6.8-8.4-2.4 0-4.7 1.2-5.9 3.3h-.1l-.1-1.6c-.1-.9-.1-1.1-.5-1.1-.9 0-3.1.3-5 .4v1l1.2.1c.9.1 1.1.2 1.2.7.4 2.5.5 5.1.4 7.7v11.1c0 1.1-.1 3.6-.2 4.5l-2.7.2v1.2c1.7 0 3.2-.2 5.1-.2s3.4.2 5.1.2zm-4.6-19.2c0-3.9 2.3-5.9 4.6-5.9 3.3 0 5.1 3.2 5.1 7.8s-2.5 7.1-5.1 7.1c-1.9 0-4.5-1.4-4.5-3.6v-5.4z"/><path d="m125.3 79.2c0-4.1-2.4-7.5-7-7.5-5.1 0-8.4 4-8.4 9 0 4.5 2.6 8.1 7.8 8.1 4.3 0 6.5-2.3 7.6-5.7l-.6-.2c-.8 2.4-2.6 4.9-6.2 4.9-4 0-5.6-3.2-5.4-8.5zm-12.3-.9c.1-2.9 2.1-5.9 5.2-5.9 2.8 0 4 2.4 4 4.9 0 .7-.1.9-.4.9z"/><path d="m140.6 70.6c-.4 1-.7 1.8-1.8 1.8-.7-.1-1.3-.2-2-.4-1-.2-2-.3-3.1-.3-4 0-6.6 2.5-6.6 6.1-.1 2.4 1.5 4.6 3.8 5.2v.3c-1.5.4-2.6 1.7-2.7 3.2-.1 1.2.6 2.3 1.6 2.7v.3c-1.9.7-3.2 2.5-3.3 4.5 0 3.3 3 5.1 7.8 5.1 6.3 0 8.9-4.4 8.9-6.9 0-2.3-1.1-4.2-5.2-4.4l-5.8-.3c-1.8-.1-2.4-.8-2.4-1.6 0-1.6 1.1-2.5 3.4-2.5 4.7 0 6.9-2.4 6.9-6.1 0-1.4-.4-2.8-1.3-3.9l.1-.1c.9.2 1.8.4 2.8.4 1.1 0 1.6-.7 1.6-1.7 0-.3 0-.6-.1-.9zm-6.9 12.2c-2.7 0-3.7-2.4-3.7-4.8 0-2.7.9-5.6 4-5.6 2.7 0 3.3 2.7 3.3 4.9 0 2.4-.7 5.5-3.6 5.5zm.7 15.7c-3.4 0-6.4-1.3-6.4-4.8 0-1.8 1.1-3.3 2.5-3.3 8.5 0 10.7.6 10.7 3.2 0 3.6-4 4.8-6.8 4.9z"/><path d="m125.6 65.2c-8.7-11.5-24.4-20.8-45.3-23.8s-41.5 1.1-61.4 10.2c19.7-5.6 34.6-8.8 58.8-5.7 20.4 2.5 36.6 10.3 47.9 19.3z"/><path d="m73.4.6c1.3-.4 2.6-.6 4-.6 8.1 0 14.8 6.9 14.8 15.5s-6.6 15.5-14.7 15.5c-6.4-.1-12.1-4.3-14-10.4 3 3.9 7.6 6.1 12.4 6 8.2 0 14.8-5.9 14.8-13.1s-6.6-13-14.8-13c-.8-.1-1.7 0-2.5.1z"/><path d="m80.7 6.6c-7.9-3.5-17.2.1-20.7 8s.1 17.2 8 20.7c7.7 3.4 16.7.1 20.4-7.4-3.6 3.5-8.6 5.2-13.5 4.5-8.4-1-14.5-7.7-13.6-15s8.4-12.4 16.8-11.3c.8.1 1.7.3 2.6.5z"/><path d="m82.8 16.8c0-.1.1-.3.1-.4.2-1.8-.8-3.6-2.5-4.4h.6c2.8.3 4.8 2.8 4.5 5.6s-2.8 4.8-5.6 4.5c-1.6-.2-3-1.1-3.8-2.4l-.1-.3c-.3-.5-.4-1.1-.4-1.7 0-2 1.6-3.7 3.7-3.7 1.6 0 3.1 1.1 3.5 2.8z"/></g></svg>