<svg width="381" height="263" viewBox="0 0 381 263" fill="none" xmlns="http://www.w3.org/2000/svg">
<path d="M47.9771 183.426L64.6762 235.114H65.7365L86.9418 181.571C89.5925 174.679 91.713 171.233 95.9541 170.703V167.787C94.3637 167.787 91.1829 168.317 86.4117 168.317C81.6405 168.317 78.4597 167.787 76.8693 167.787V170.173C84.2912 170.703 85.8816 171.763 85.8816 173.619C85.6165 176.534 85.0864 179.185 84.0261 181.836L68.9173 221.861H68.6522L56.7242 180.51C55.929 178.125 55.3989 176.004 55.1339 173.619C55.1339 171.498 57.5194 170.438 62.8208 170.438V168.052C60.7002 168.052 56.4592 168.582 50.0976 168.582C43.736 168.582 39.2299 168.052 37.3744 168.052V170.438C40.8203 170.438 42.9408 170.968 43.4709 172.028C44.7963 174.679 45.8565 177.595 46.3867 180.775C46.3867 181.571 46.1216 182.366 45.8565 183.161L33.1333 221.066H32.8683L17.7595 175.739C17.4944 174.679 17.2293 173.619 16.9643 172.558C16.9643 170.703 20.4101 170.173 24.3861 170.173V167.787C21.7355 167.787 17.7595 168.317 12.1931 168.317C5.83146 168.317 1.85547 167.257 0 167.257V170.438C4.7712 170.703 5.5664 171.233 7.1568 175.474L29.4224 235.114H30.4827L47.9771 183.426Z" fill="#FFF2C4"/>
<path d="M113.449 233.524V231.138H106.292V203.306C106.292 196.414 106.557 194.029 106.557 192.703C106.557 191.378 106.557 191.113 106.027 191.113C101.255 192.173 96.4843 192.703 91.7131 192.968V195.619L95.1589 195.884C96.4843 195.884 98.6048 196.414 98.6048 196.944C98.6048 200.39 98.8699 203.836 98.8699 207.812V222.391C98.8699 225.572 98.6048 228.487 98.3397 231.403H91.448V233.789L113.449 233.524ZM97.5445 176.004C97.2795 178.39 99.1349 180.775 101.521 181.04H102.581C105.231 181.04 107.352 178.655 107.352 176.004C107.617 173.619 106.027 171.233 103.376 170.968C103.111 170.968 102.846 170.968 102.581 170.968C99.6651 171.233 97.5445 173.354 97.5445 176.004Z" fill="#FFF2C4"/>
<path d="M164.871 233.524V231.138H158.51V205.162C158.51 195.089 152.148 190.053 144.461 190.053C137.304 190.053 133.594 194.029 130.413 199.595H130.148C130.148 196.944 130.148 191.643 129.618 191.643C128.557 191.643 120.605 192.703 116.099 192.703V195.354C119.81 195.354 122.461 195.354 122.726 197.74C123.256 200.39 123.521 203.041 123.521 205.692V224.776C123.521 227.427 122.991 229.548 122.991 230.608C122.991 231.138 122.461 231.668 121.931 231.668H116.629V233.789C120.605 233.789 124.316 233.524 128.027 233.524H137.304V231.668H130.678V205.957C130.148 199.33 135.184 193.499 142.076 192.968C146.847 192.968 150.293 195.089 150.293 200.125V228.752C150.293 230.873 149.232 231.933 145.787 231.933H143.136V233.789L164.871 233.524Z" fill="#FFF2C4"/>
<path d="M214.704 233.524V231.138H208.342V205.162C208.342 195.089 201.981 190.053 194.294 190.053C187.137 190.053 183.426 194.029 180.245 199.595H179.98C179.98 196.944 179.98 191.643 179.45 191.643C178.39 191.643 170.438 192.703 165.932 192.703V195.354C169.643 195.354 172.293 195.354 172.558 197.74C173.088 200.39 173.354 203.041 173.354 205.692V224.776C173.354 227.427 172.823 229.548 172.823 230.608C172.823 231.138 172.293 231.668 171.763 231.668H166.462V233.789C170.438 233.789 174.149 233.524 177.86 233.524H187.137V231.668H180.51V205.957C179.98 199.33 185.016 193.499 191.908 192.968C196.679 192.968 200.125 195.089 200.125 200.125V228.752C200.125 230.873 199.065 231.933 195.619 231.933H192.968V233.789L214.704 233.524Z" fill="#FFF2C4"/>
<path d="M238.295 233.524V231.138H230.873V203.306C230.873 196.414 231.138 194.029 231.138 192.703C231.138 191.378 231.138 191.113 230.608 191.113C225.837 192.173 221.066 192.703 216.294 192.968V195.619L219.74 195.884C221.066 195.884 223.186 196.414 223.186 196.944C223.186 200.39 223.451 203.836 223.451 207.812V222.391C223.451 225.572 223.186 228.487 222.921 231.403H216.029V233.789L238.295 233.524ZM222.391 176.004C222.126 178.39 223.981 180.775 226.367 181.04H227.162C229.813 181.04 231.933 178.655 231.933 176.004C232.198 173.619 230.608 171.233 227.957 170.968C227.692 170.968 227.427 170.968 227.162 170.968C224.511 170.968 222.391 173.354 222.391 176.004Z" fill="#FFF2C4"/>
<path d="M265.332 260.295L257.645 259.235C255.524 258.97 254.199 257.38 254.199 255.259L253.669 229.813C257.115 233.259 261.621 235.114 266.392 235.114C279.115 235.114 287.332 225.307 287.332 212.318C287.332 200.92 280.44 190.053 269.308 190.053C262.946 190.053 256.85 193.234 253.669 198.8H253.404L253.139 194.559C252.874 192.173 252.874 191.643 251.813 191.643C249.428 191.643 243.596 192.438 238.56 192.703V195.354L241.741 195.619C244.126 195.884 244.657 196.149 244.922 197.475C245.982 204.101 246.247 210.993 245.982 217.885V247.307C245.982 250.223 245.717 256.85 245.452 259.235L238.295 259.765V262.946C242.801 262.946 246.777 262.416 251.813 262.416C256.85 262.416 260.826 262.946 265.332 262.946V260.295ZM253.139 209.403C253.139 199.065 259.235 193.764 265.332 193.764C274.079 193.764 278.85 202.246 278.85 214.439C278.85 226.632 272.223 233.259 265.332 233.259C260.295 233.259 253.404 229.548 253.404 223.716V209.403H253.139Z" fill="#FFF2C4"/>
<path d="M332.393 209.933C332.393 199.065 326.032 190.053 313.839 190.053C300.32 190.053 291.573 200.655 291.573 213.909C291.573 225.837 298.465 235.379 312.248 235.379C323.646 235.379 329.478 229.283 332.393 220.27L330.803 219.74C328.683 226.102 323.911 232.728 314.369 232.728C303.766 232.728 299.525 224.246 300.055 210.198L332.393 209.933ZM299.79 207.547C300.055 199.86 305.357 191.908 313.574 191.908C320.996 191.908 324.176 198.27 324.176 204.896C324.176 206.752 323.911 207.282 323.116 207.282L299.79 207.547Z" fill="#FFF2C4"/>
<path d="M372.949 187.137C371.888 189.788 371.093 191.908 368.177 191.908C366.322 191.643 364.732 191.378 362.876 190.848C360.225 190.318 357.575 190.053 354.659 190.053C344.056 190.053 337.165 196.679 337.165 206.222C336.9 212.583 341.141 218.415 347.237 220.005V220.8C343.261 221.861 340.345 225.307 340.08 229.283C339.815 232.463 341.671 235.379 344.321 236.439V237.235C339.285 239.09 335.839 243.861 335.574 249.163C335.574 257.91 343.526 262.681 356.249 262.681C372.949 262.681 379.84 251.018 379.84 244.391C379.84 238.295 376.925 233.259 366.057 232.728L350.683 231.933C345.912 231.668 344.321 229.813 344.321 227.692C344.321 223.451 347.237 221.065 353.334 221.065C365.792 221.065 371.623 214.704 371.623 204.896C371.623 201.186 370.563 197.475 368.177 194.559L368.442 194.294C370.828 194.824 373.214 195.354 375.864 195.354C378.78 195.354 380.105 193.499 380.105 190.848C380.105 190.053 380.105 189.257 379.84 188.462L372.949 187.137ZM354.659 219.475C347.502 219.475 344.852 213.113 344.852 206.752C344.852 199.595 347.237 191.908 355.454 191.908C362.611 191.908 364.201 199.065 364.201 204.896C364.201 211.258 362.346 219.475 354.659 219.475ZM356.514 261.091C347.502 261.091 339.55 257.645 339.55 248.367C339.55 243.596 342.466 239.62 346.177 239.62C368.708 239.62 374.539 241.211 374.539 248.102C374.539 257.645 363.936 260.825 356.514 261.091Z" fill="#FFF2C4"/>
<path d="M333.189 172.823C310.128 142.341 268.512 117.69 213.114 109.738C157.715 101.786 103.111 112.653 50.3627 136.774C102.581 121.931 142.076 113.449 206.222 121.666C260.295 128.292 303.236 148.967 333.189 172.823Z" fill="#FFF2C4"/>
<path d="M194.824 1.5904C198.27 0.530133 201.716 0 205.427 0C226.897 0 244.656 18.2896 244.656 41.0853C244.656 63.881 227.162 82.1706 205.692 82.1706C188.727 81.9056 173.619 70.7728 168.582 54.6037C176.534 64.9413 188.727 70.7728 201.451 70.5077C223.186 70.5077 240.68 54.8688 240.68 35.784C240.68 16.6992 223.186 1.32533 201.451 1.32533C199.33 1.06027 196.944 1.32533 194.824 1.5904Z" fill="#FFF2C4"/>
<path d="M214.174 17.4944C193.234 8.21707 168.582 17.7595 159.305 38.6997C150.028 59.64 159.57 84.2912 180.51 93.5685C200.92 102.581 224.776 93.8336 234.584 73.9536C225.042 83.2309 211.788 87.737 198.8 85.8816C176.534 83.2309 160.365 65.4715 162.751 46.1216C165.136 26.7717 185.016 13.2533 207.282 16.1691C209.403 16.4341 211.788 16.9643 214.174 17.4944Z" fill="#FFF2C4"/>
<path d="M219.74 44.5312C219.74 44.2661 220.005 43.736 220.005 43.4709C220.535 38.6997 217.885 33.9285 213.379 31.808H214.969C222.391 32.6032 227.692 39.2298 226.897 46.6517C226.102 54.0736 219.475 59.3749 212.053 58.5797C207.812 58.0496 204.101 55.664 201.981 52.2181L201.716 51.4229C200.92 50.0976 200.655 48.5072 200.655 46.9168C200.655 41.6154 204.896 37.1093 210.463 37.1093C214.704 37.1093 218.68 40.025 219.74 44.5312Z" fill="#FFF2C4"/>
</svg>
